<svg width="72" height="71" viewBox="0 0 72 71" fill="none" xmlns="http://www.w3.org/2000/svg">
<path d="M71.5213 20.7357V50.2198C71.5213 55.5344 69.3978 60.6313 65.6181 64.3892C61.8384 68.1471 56.712 70.2583 51.3666 70.2583C46.0212 70.2583 40.8948 68.1471 37.1151 64.3892C33.3353 60.6313 31.2119 55.5344 31.2119 50.2198V20.7357C31.2119 15.4212 33.3353 10.3243 37.1151 6.56639C40.8948 2.80845 46.0212 0.697266 51.3666 0.697266C56.712 0.697266 61.8384 2.80845 65.6181 6.56639C69.3978 10.3243 71.5213 15.4212 71.5213 20.7357ZM40.9248 50.2198C40.9248 52.9732 42.0249 55.6138 43.9831 57.5607C45.9413 59.5077 48.5973 60.6015 51.3666 60.6015C54.1359 60.6015 56.7918 59.5077 58.7501 57.5607C60.7083 55.6138 61.8084 52.9732 61.8084 50.2198V20.7357C61.8084 17.9824 60.7083 15.3417 58.7501 13.3948C56.7918 11.4479 54.1359 10.3541 51.3666 10.3541C48.5973 10.3541 45.9413 11.4479 43.9831 13.3948C42.0249 15.3417 40.9248 17.9824 40.9248 20.7357V50.2198Z" fill="#D3D3D3"/>
<path d="M40.8079 20.7354V50.2195C40.8079 55.4946 38.7003 60.5536 34.9486 64.2837C31.1969 68.0137 26.1086 70.1092 20.8029 70.1092C15.4972 70.1092 10.4088 68.0137 6.65717 64.2837C2.9055 60.5536 0.797852 55.4946 0.797852 50.2195V20.7354C0.797852 15.4603 2.9055 10.4013 6.65717 6.67124C10.4088 2.9412 15.4972 0.845703 20.8029 0.845703C26.1086 0.845703 31.1969 2.9412 34.9486 6.67124C38.7003 10.4013 40.8079 15.4603 40.8079 20.7354ZM10.4383 50.2195C10.4383 52.9525 11.5303 55.5736 13.474 57.5062C15.4178 59.4387 18.054 60.5243 20.8029 60.5243C23.5517 60.5243 26.188 59.4387 28.1318 57.5062C30.0755 55.5736 31.1675 52.9525 31.1675 50.2195V20.7354C31.1675 18.0024 30.0755 15.3813 28.1318 13.4488C26.188 11.5163 23.5517 10.4306 20.8029 10.4306C18.054 10.4306 15.4178 11.5163 13.474 13.4488C11.5303 15.3813 10.4383 18.0024 10.4383 20.7354V50.2195Z" fill="#D3D3D3"/>
<path d="M37.4897 33.262V37.6939C37.4897 38.4927 37.1705 39.2589 36.6024 39.8237C36.0342 40.3886 35.2637 40.7059 34.4602 40.7059C33.6567 40.7059 32.8861 40.3886 32.318 39.8237C31.7498 39.2589 31.4307 38.4927 31.4307 37.6939V33.262C31.4307 32.4632 31.7498 31.6971 32.318 31.1322C32.8861 30.5673 33.6567 30.25 34.4602 30.25C35.2637 30.25 36.0342 30.5673 36.6024 31.1322C37.1705 31.6971 37.4897 32.4632 37.4897 33.262ZM32.8914 37.6939C32.9002 38.1019 33.0694 38.4902 33.3627 38.7756C33.656 39.061 34.0501 39.2208 34.4605 39.2208C34.871 39.2208 35.2651 39.061 35.5584 38.7756C35.8517 38.4902 36.0209 38.1019 36.0297 37.6939V33.262C36.0209 32.8541 35.8517 32.4658 35.5584 32.1804C35.2651 31.8949 34.871 31.7351 34.4605 31.7351C34.0501 31.7351 33.656 31.8949 33.3627 32.1804C33.0694 32.4658 32.9002 32.8541 32.8914 33.262V37.6939Z" fill="#383838"/>
<path d="M45.4721 33.262V37.6939C45.4721 38.4927 45.1529 39.2589 44.5848 39.8237C44.0166 40.3886 43.2461 40.7059 42.4426 40.7059C41.6391 40.7059 40.8686 40.3886 40.3004 39.8237C39.7323 39.2589 39.4131 38.4927 39.4131 37.6939V33.262C39.4131 32.4632 39.7323 31.6971 40.3004 31.1322C40.8686 30.5673 41.6391 30.25 42.4426 30.25C43.2461 30.25 44.0166 30.5673 44.5848 31.1322C45.1529 31.6971 45.4721 32.4632 45.4721 33.262ZM40.8731 37.6939C40.8731 38.1078 41.0384 38.5047 41.3328 38.7973C41.6271 39.09 42.0263 39.2544 42.4426 39.2544C42.8589 39.2544 43.2581 39.09 43.5524 38.7973C43.8468 38.5047 44.0121 38.1078 44.0121 37.6939V33.262C44.0121 32.8482 43.8468 32.4513 43.5524 32.1586C43.2581 31.866 42.8589 31.7016 42.4426 31.7016C42.0263 31.7016 41.6271 31.866 41.3328 32.1586C41.0384 32.4513 40.8731 32.8482 40.8731 33.262V37.6939Z" fill="#383838"/>
<path d="M53.4548 30.2676H51.997C51.997 30.2936 51.997 30.3195 51.997 30.3455V37.6927C51.997 38.5484 50.4275 39.2438 50.4275 39.2438C50.4275 39.2438 48.8579 38.5484 48.8579 37.6927V30.3455C48.8579 30.3195 48.8579 30.2936 48.8579 30.2676H47.3965C47.3965 30.2936 47.3965 30.3195 47.3965 30.3455V37.6927C47.3965 39.3441 50.426 40.6867 50.426 40.6867C50.426 40.6867 53.4555 39.3441 53.4555 37.6927V30.3455C53.4555 30.3195 53.4555 30.2936 53.4548 30.2676Z" fill="#383838"/>
<path d="M29.5131 33.262V37.6939C29.5131 38.4927 29.1939 39.2589 28.6258 39.8237C28.0577 40.3886 27.2871 40.7059 26.4836 40.7059C25.6801 40.7059 24.9096 40.3886 24.3414 39.8237C23.7733 39.2589 23.4541 38.4927 23.4541 37.6939V33.262C23.4541 32.4632 23.7733 31.6971 24.3414 31.1322C24.9096 30.5673 25.6801 30.25 26.4836 30.25C27.2871 30.25 28.0577 30.5673 28.6258 31.1322C29.1939 31.6971 29.5131 32.4632 29.5131 33.262ZM24.9141 37.6939C24.9141 38.1078 25.0794 38.5047 25.3738 38.7973C25.6681 39.09 26.0673 39.2544 26.4836 39.2544C26.8999 39.2544 27.2991 39.09 27.5934 38.7973C27.8878 38.5047 28.0532 38.1078 28.0532 37.6939V33.262C28.0532 32.8482 27.8878 32.4513 27.5934 32.1586C27.2991 31.866 26.8999 31.7016 26.4836 31.7016C26.0673 31.7016 25.6681 31.866 25.3738 32.1586C25.0794 32.4513 24.9141 32.8482 24.9141 33.262V37.6939Z" fill="#383838"/>
<path d="M24.8969 33.2612V37.693C24.8969 38.4859 24.58 39.2464 24.0161 39.807C23.4522 40.3677 22.6873 40.6827 21.8898 40.6827C21.0923 40.6827 20.3275 40.3677 19.7635 39.807C19.1996 39.2464 18.8828 38.4859 18.8828 37.693V33.2612C18.8828 32.4683 19.1996 31.7078 19.7635 31.1471C20.3275 30.5865 21.0923 30.2715 21.8898 30.2715C22.6873 30.2715 23.4522 30.5865 24.0161 31.1471C24.58 31.7078 24.8969 32.4683 24.8969 33.2612ZM20.3319 37.693C20.3319 38.1038 20.496 38.4978 20.7882 38.7883C21.0804 39.0788 21.4766 39.242 21.8898 39.242C22.303 39.242 22.6993 39.0788 22.9915 38.7883C23.2836 38.4978 23.4478 38.1038 23.4478 37.693V33.2612C23.4478 32.8504 23.2836 32.4564 22.9915 32.1659C22.6993 31.8754 22.303 31.7122 21.8898 31.7122C21.4766 31.7122 21.0804 31.8754 20.7882 32.1659C20.496 32.4564 20.3319 32.8504 20.3319 33.2612V37.693Z" fill="#383838"/>
<path d="M41.1766 44.0776C41.0104 44.0776 40.8613 44.0414 40.7292 43.9689C40.5992 43.8965 40.497 43.7953 40.4224 43.6654C40.3478 43.5334 40.3105 43.3853 40.3105 43.2213C40.3105 43.0573 40.3478 42.9104 40.4224 42.7804C40.497 42.6505 40.5992 42.5493 40.7292 42.4769C40.8613 42.4045 41.0104 42.3683 41.1766 42.3683C41.3215 42.3683 41.4504 42.3971 41.5633 42.4546C41.6783 42.5099 41.7689 42.5919 41.8349 42.7006L41.6656 42.8156C41.6102 42.7325 41.5399 42.6708 41.4546 42.6303C41.3694 42.5877 41.2767 42.5664 41.1766 42.5664C41.0552 42.5664 40.9454 42.5941 40.8474 42.6495C40.7516 42.7027 40.6759 42.7794 40.6205 42.8795C40.5673 42.9796 40.5406 43.0935 40.5406 43.2213C40.5406 43.3513 40.5673 43.4663 40.6205 43.5664C40.6759 43.6644 40.7516 43.741 40.8474 43.7964C40.9454 43.8497 41.0552 43.8763 41.1766 43.8763C41.2767 43.8763 41.3694 43.856 41.4546 43.8156C41.5399 43.7751 41.6102 43.7133 41.6656 43.6303L41.8349 43.7453C41.7689 43.8539 41.6783 43.937 41.5633 43.9945C41.4482 44.0499 41.3193 44.0776 41.1766 44.0776Z" fill="#383838"/>
<path d="M42.9397 44.0776C42.7777 44.0776 42.6318 44.0414 42.5018 43.9689C42.3719 43.8944 42.2696 43.7922 42.1951 43.6622C42.1205 43.5323 42.0832 43.3853 42.0832 43.2213C42.0832 43.0573 42.1205 42.9104 42.1951 42.7804C42.2696 42.6505 42.3719 42.5493 42.5018 42.4769C42.6318 42.4045 42.7777 42.3683 42.9397 42.3683C43.1016 42.3683 43.2475 42.4045 43.3775 42.4769C43.5074 42.5493 43.6086 42.6505 43.6811 42.7804C43.7557 42.9104 43.7929 43.0573 43.7929 43.2213C43.7929 43.3853 43.7557 43.5323 43.6811 43.6622C43.6086 43.7922 43.5074 43.8944 43.3775 43.9689C43.2475 44.0414 43.1016 44.0776 42.9397 44.0776ZM42.9397 43.8763C43.059 43.8763 43.1655 43.8497 43.2592 43.7964C43.3551 43.741 43.4297 43.6633 43.4829 43.5632C43.5362 43.4631 43.5628 43.3491 43.5628 43.2213C43.5628 43.0935 43.5362 42.9796 43.4829 42.8795C43.4297 42.7794 43.3551 42.7027 43.2592 42.6495C43.1655 42.5941 43.059 42.5664 42.9397 42.5664C42.8204 42.5664 42.7128 42.5941 42.6169 42.6495C42.5231 42.7027 42.4486 42.7794 42.3932 42.8795C42.3399 42.9796 42.3133 43.0935 42.3133 43.2213C42.3133 43.3491 42.3399 43.4631 42.3932 43.5632C42.4486 43.6633 42.5231 43.741 42.6169 43.7964C42.7128 43.8497 42.8204 43.8763 42.9397 43.8763Z" fill="#383838"/>
<path d="M45.1126 42.3683C45.3236 42.3683 45.4908 42.4301 45.6144 42.5536C45.7401 42.675 45.8029 42.8529 45.8029 43.0871V44.0616H45.576V43.1095C45.576 42.9349 45.5323 42.8017 45.445 42.7102C45.3576 42.6186 45.233 42.5728 45.0711 42.5728C44.89 42.5728 44.7462 42.6271 44.6397 42.7357C44.5353 42.8422 44.4831 42.9902 44.4831 43.1798V44.0616H44.2562V42.3811H44.4735V42.691C44.5353 42.5887 44.6205 42.5099 44.7291 42.4546C44.8399 42.3971 44.9678 42.3683 45.1126 42.3683Z" fill="#383838"/>
<path d="M47.2754 42.3683C47.4863 42.3683 47.6536 42.4301 47.7771 42.5536C47.9028 42.675 47.9657 42.8529 47.9657 43.0871V44.0616H47.7388V43.1095C47.7388 42.9349 47.6951 42.8017 47.6078 42.7102C47.5204 42.6186 47.3958 42.5728 47.2339 42.5728C47.0528 42.5728 46.9089 42.6271 46.8024 42.7357C46.698 42.8422 46.6458 42.9902 46.6458 43.1798V44.0616H46.4189V42.3811H46.6362V42.691C46.698 42.5887 46.7832 42.5099 46.8919 42.4546C47.0027 42.3971 47.1305 42.3683 47.2754 42.3683Z" fill="#383838"/>
<path d="M50.0516 43.2916H48.6455C48.6582 43.4663 48.7254 43.6079 48.8468 43.7165C48.9682 43.823 49.1216 43.8763 49.307 43.8763C49.4114 43.8763 49.5072 43.8582 49.5946 43.822C49.6819 43.7836 49.7576 43.7283 49.8215 43.6558L49.9493 43.8028C49.8748 43.8923 49.781 43.9604 49.6681 44.0073C49.5573 44.0541 49.4348 44.0776 49.3006 44.0776C49.128 44.0776 48.9746 44.0414 48.8404 43.9689C48.7083 43.8944 48.605 43.7922 48.5304 43.6622C48.4558 43.5323 48.4186 43.3853 48.4186 43.2213C48.4186 43.0573 48.4537 42.9104 48.524 42.7804C48.5965 42.6505 48.6945 42.5493 48.818 42.4769C48.9437 42.4045 49.0843 42.3683 49.2399 42.3683C49.3954 42.3683 49.5349 42.4045 49.6585 42.4769C49.7821 42.5493 49.879 42.6505 49.9493 42.7804C50.0196 42.9082 50.0548 43.0552 50.0548 43.2213L50.0516 43.2916ZM49.2399 42.5632C49.0779 42.5632 48.9416 42.6154 48.8308 42.7197C48.7222 42.822 48.6604 42.9562 48.6455 43.1223H49.8375C49.8226 42.9562 49.7597 42.822 49.6489 42.7197C49.5403 42.6154 49.4039 42.5632 49.2399 42.5632Z" fill="#383838"/>
<path d="M51.2133 44.0776C51.0471 44.0776 50.898 44.0414 50.7659 43.9689C50.6359 43.8965 50.5337 43.7953 50.4591 43.6654C50.3845 43.5334 50.3473 43.3853 50.3473 43.2213C50.3473 43.0573 50.3845 42.9104 50.4591 42.7804C50.5337 42.6505 50.6359 42.5493 50.7659 42.4769C50.898 42.4045 51.0471 42.3683 51.2133 42.3683C51.3582 42.3683 51.4871 42.3971 51.6 42.4546C51.715 42.5099 51.8056 42.5919 51.8716 42.7006L51.7023 42.8156C51.6469 42.7325 51.5766 42.6708 51.4913 42.6303C51.4061 42.5877 51.3134 42.5664 51.2133 42.5664C51.0919 42.5664 50.9821 42.5941 50.8841 42.6495C50.7883 42.7027 50.7126 42.7794 50.6572 42.8795C50.604 42.9796 50.5773 43.0935 50.5773 43.2213C50.5773 43.3513 50.604 43.4663 50.6572 43.5664C50.7126 43.6644 50.7883 43.741 50.8841 43.7964C50.9821 43.8497 51.0919 43.8763 51.2133 43.8763C51.3134 43.8763 51.4061 43.856 51.4913 43.8156C51.5766 43.7751 51.6469 43.7133 51.7023 43.6303L51.8716 43.7453C51.8056 43.8539 51.715 43.937 51.6 43.9945C51.4849 44.0499 51.356 44.0776 51.2133 44.0776Z" fill="#383838"/>
<path d="M53.2213 43.9593C53.1787 43.9977 53.1254 44.0275 53.0615 44.0488C52.9997 44.068 52.9348 44.0776 52.8666 44.0776C52.7089 44.0776 52.5875 44.035 52.5023 43.9498C52.4171 43.8646 52.3744 43.7442 52.3744 43.5887V42.5728H52.074V42.3811H52.3744V42.0137H52.6013V42.3811H53.1127V42.5728H52.6013V43.576C52.6013 43.6761 52.6258 43.7527 52.6748 43.806C52.726 43.8571 52.7984 43.8827 52.8922 43.8827C52.939 43.8827 52.9838 43.8752 53.0264 43.8603C53.0711 43.8454 53.1095 43.8241 53.1414 43.7964L53.2213 43.9593Z" fill="#383838"/>
</svg>
