<svg width="25" height="14" viewBox="0 0 25 14" fill="none" xmlns="http://www.w3.org/2000/svg">
<path d="M24.8422 6.31081C23.6325 4.73301 19.3991 0 12.5098 0C5.62053 0 1.41333 4.73311 0.17746 6.31081C-0.0591533 6.60007 -0.0591533 7.02082 0.17746 7.31007C1.38713 8.88787 5.62053 13.6209 12.5098 13.6209C19.3991 13.6209 23.6063 8.88777 24.8422 7.31007C25.0526 7.02081 25.0526 6.60006 24.8422 6.31081ZM12.5098 11.8854C9.69617 11.8854 7.43489 9.62399 7.43489 6.81042C7.43489 3.99675 9.69627 1.73547 12.5098 1.73547C15.3235 1.73547 17.5848 3.99685 17.5848 6.81042C17.5848 9.62408 15.3236 11.8854 12.5098 11.8854Z" fill="#CDCCD4"/>
<path d="M15.7708 6.81044C15.7708 8.61127 14.3109 10.0711 12.5101 10.0711C10.7094 10.0711 9.24951 8.61123 9.24951 6.81044C9.24951 5.00965 10.7094 3.5498 12.5101 3.5498C14.3109 3.5498 15.7708 5.00965 15.7708 6.81044Z" fill="#CDCCD4"/>
</svg>
